<svg width="100%" height="100%" viewBox="0 0 500 500" xmlns="http://www.w3.org/2000/svg">
  <path d="M 301.693 22.661 C 280.52 22.661 263.379 39.794 263.379 60.953 C 263.379 82.078 280.536 99.241 301.681 99.241 L 357.389 99.241 C 370.78 99.241 381.726 110.178 381.726 123.606 C 381.726 137.04 370.807 147.97 357.381 147.97 L 51.031 147.97 C 29.847 147.97 12.756 165.102 12.756 186.262 C 12.756 207.394 29.942 224.552 51.107 224.552 L 280.845 224.552 C 294.21 224.552 305.147 235.488 305.147 248.916 C 305.147 262.344 294.206 273.284 280.739 273.284 L 231.99 273.284 C 210.868 273.284 193.76 290.435 193.76 311.572 C 193.76 332.701 210.92 349.861 232.069 349.861 L 336.434 349.861 C 349.957 349.861 360.842 360.748 360.842 374.226 C 360.842 387.654 349.902 398.594 336.441 398.594 L 134.632 398.594 C 113.419 398.594 96.298 415.711 96.298 436.883 C 96.298 458.001 113.419 475.171 134.534 475.171 L 430.526 475.171 C 461.232 475.171 486.151 450.215 486.151 419.467 L 486.151 78.369 C 486.151 47.565 461.209 22.661 430.41 22.661 L 301.693 22.661 Z M 92.862 22.661 C 71.694 22.661 54.526 39.797 54.526 60.953 C 54.526 82.085 71.704 99.241 92.862 99.241 L 183.273 99.241 C 204.442 99.241 221.608 82.104 221.608 60.953 C 221.608 39.818 204.432 22.661 183.273 22.661 L 92.862 22.661 Z M 113.724 349.861 C 134.862 349.861 151.989 332.717 151.989 311.572 C 151.989 290.447 134.856 273.284 113.724 273.284 L 64.945 273.284 C 43.807 273.284 26.68 290.428 26.68 311.572 C 26.68 332.694 43.816 349.861 64.945 349.861 L 113.724 349.861 Z" />
</svg>
